<?xml version="1.0" encoding="UTF-8" standalone="no"?>
<!-- Created with Inkscape (http://www.inkscape.org/) -->

<svg
   width="177.84982"
   height="177.84795"
   viewBox="0 0 47.056098 47.055602"
   version="1.1"
   id="svg5"
   xmlns="http://www.w3.org/2000/svg"
   xmlns:svg="http://www.w3.org/2000/svg">
  <defs
     id="defs2" />
  <g
     id="layer1"
     transform="translate(-90.746226,-210.39505)">
    <path
       id="path6726-4"
       style="fill:#7668cb;fill-opacity:1;stroke:#7668cb;stroke-width:1;stroke-linecap:butt;stroke-linejoin:bevel;stroke-miterlimit:3.3;stroke-dasharray:none;stroke-opacity:1;paint-order:markers fill stroke"
       d="m 114.27428,210.89506 a 23.028,23.028 0 0 0 -23.028047,23.02754 23.028,23.028 0 0 0 23.028047,23.02805 23.028,23.028 0 0 0 23.02805,-23.02805 23.028,23.028 0 0 0 -23.02805,-23.02754 z m 0,8.30751 a 14.720288,14.720288 0 0 1 14.72003,14.72003 14.720288,14.720288 0 0 1 -14.72003,14.72055 14.720288,14.720288 0 0 1 -14.720546,-14.72055 14.720288,14.720288 0 0 1 14.720546,-14.72003 z" />
  </g>
</svg>
