<?xml version="1.0" encoding="UTF-8" standalone="no"?>
<!-- Created with Inkscape (http://www.inkscape.org/) -->

<svg
   width="177.84985"
   height="177.84789"
   viewBox="0 0 47.056106 47.055586"
   version="1.1"
   id="svg5"
   xmlns="http://www.w3.org/2000/svg"
   xmlns:svg="http://www.w3.org/2000/svg">
  <defs
     id="defs2" />
  <g
     id="layer1"
     transform="translate(-28.518769,-208.64418)">
    <path
       id="path6726"
       style="opacity:1;fill:#eaeaee;fill-opacity:1;stroke:#eaeaee;stroke-width:1;stroke-linecap:butt;stroke-linejoin:bevel;stroke-miterlimit:3.3;stroke-dasharray:none;stroke-opacity:1;paint-order:markers fill stroke"
       d="m 52.046821,209.14418 a 23.028,23.028 0 0 0 -23.028052,23.02754 23.028,23.028 0 0 0 23.028052,23.02805 23.028,23.028 0 0 0 23.028052,-23.02805 23.028,23.028 0 0 0 -23.028052,-23.02754 z m 0,8.30751 a 14.720288,14.720288 0 0 1 14.720032,14.72003 14.720288,14.720288 0 0 1 -14.720032,14.72055 14.720288,14.720288 0 0 1 -14.720548,-14.72055 14.720288,14.720288 0 0 1 14.720548,-14.72003 z" />
  </g>
</svg>
